<?xml version="1.0" encoding="utf-8"?>
<!-- Svg Vector Icons : http://www.onlinewebfonts.com/icon -->
<!DOCTYPE svg PUBLIC "-//W3C//DTD SVG 1.1//EN" "http://www.w3.org/Graphics/SVG/1.1/DTD/svg11.dtd">
<svg version="1.1" xmlns="http://www.w3.org/2000/svg" xmlns:xlink="http://www.w3.org/1999/xlink" x="0px" y="0px" viewBox="0 0 1000 1000" enable-background="new 0 0 1000 1000" xml:space="preserve">
<metadata> Svg Vector Icons : http://www.onlinewebfonts.com/icon </metadata>
<g><g><path d="M929,489.9l-131.8-42.8v32.6H646c9-51.2,56.9-47.5,53.1-154.3C694.9,207.7,498.6,203.5,505.6,10c-1,1.4-1.8,2.8-2.8,4.2l0.7-4.2l-354,442.3L71,444.1l39.3,53.3l-38.1,52.4l84.9-11.6L505.6,990l1.3-36.1C524,795.6,695.1,784.5,699.1,674.6c4.2-117.8-54.6-100.9-54.6-171.8c0-0.2,0-0.5,0-0.7h0.2c0-0.7-0.1-1.4-0.1-2h152.7v46.7L929,489.9z M469.3,100.5c-3.4,105.5,155.5,147.2,155.5,224.9c0,85.6-33.2,91.6-41,154.3H246.5l-28.3-20.2l-38.5-4L469.3,100.5z M582.3,502c2.9,80.7,42.5,79.3,42.5,172.5c0,78.7-162.9,120.3-155.4,228.8l-284-369.1l34.2-4.7l35.5-29.6h327.1c0,0.7-0.1,1.3-0.1,2H582.3z"/></g><g></g><g></g><g></g><g></g><g></g><g></g><g></g><g></g><g></g><g></g><g></g><g></g><g></g><g></g><g></g></g>
</svg>