<?xml version="1.0" encoding="utf-8"?>
<!-- Svg Vector Icons : http://www.onlinewebfonts.com/icon -->
<!DOCTYPE svg PUBLIC "-//W3C//DTD SVG 1.1//EN" "http://www.w3.org/Graphics/SVG/1.1/DTD/svg11.dtd">
<svg version="1.1" xmlns="http://www.w3.org/2000/svg" xmlns:xlink="http://www.w3.org/1999/xlink" x="0px" y="0px" viewBox="0 0 1000 1000" enable-background="new 0 0 1000 1000" xml:space="preserve">
<metadata> Svg Vector Icons : http://www.onlinewebfonts.com/icon </metadata>
<g><g transform="translate(0.000000,511.000000) scale(0.100000,-0.100000)"><path d="M490.4,4775.5c-38.2-41.4-70-108.1-70-149.5c0-111.3,820.5-2264.4,890.5-2334.3c70-70,229-79.5,302.1-19.1c28.6,25.4,124,187.6,213.1,362.5l159,314.8l1332.5-1332.5L4650.2,284.9l-896.8-896.8l-900-900h-594.7c-578.8,0-597.9-3.2-680.6-73.1c-108.1-95.4-117.7-251.3-19.1-349.8c63.6-60.4,111.3-70,419.8-79.5c194-9.5,349.8-25.4,349.8-38.2c0-15.9-38.2-57.2-82.7-92.2c-76.3-60.4-124-63.6-690.1-63.6l-607.4,3.2l-73.2-85.9c-95.4-108.1-92.2-222.6,6.4-318c73.1-76.3,95.4-79.5,451.6-79.5h372.1L1597.1-2800L1489-2911.3H878.4c-566.1,0-613.8-3.2-693.3-66.8c-105-82.7-114.5-251.3-19.1-346.7c57.2-57.2,104.9-63.6,604.2-63.6h540.6v-489.8c0-642.4,41.3-750.5,283-750.5c63.6,0,114.5,25.4,159,82.7c63.6,79.5,66.8,127.2,66.8,693.3v610.6l111.3,108.1l111.3,108.1v-368.9c0-305.3,9.5-378.4,57.2-435.7c82.7-101.7,229-117.7,333.9-35l85.9,66.8v629.7v626.5l92.2,89.1l92.2,89l12.7-365.7c6.4-305.3,19.1-375.3,70-432.5c82.7-92.2,273.5-92.2,356.2,0c54.1,60.4,60.4,130.4,70,693.3l9.6,626.5l890.5,890.5L5000-64.9l890.5-890.5l890.5-890.5v-607.4c0-566.1,3.2-613.8,66.8-693.3c50.9-63.6,92.2-82.7,184.5-82.7c203.5,0,238.5,70,251.3,499.3l12.7,365.7l92.2-89l92.2-89.1v-626.5v-629.7l85.9-66.8c104.9-82.7,251.2-66.8,337.1,35c44.5,57.3,54,130.4,54,435.7v368.9l111.3-108.1l111.3-108.1v-610.6c0-566.1,3.2-613.8,66.8-693.3c44.5-57.2,95.4-82.7,159-82.7c241.7,0,283.1,108.1,283.1,750.5v489.8h540.6c499.3,0,547.1,6.4,604.3,63.6c95.4,95.4,85.9,264-19.1,346.7c-79.5,63.6-127.2,66.8-693.3,66.8H8511L8402.9-2800l-108.1,111.3h372.1c356.2,0,378.5,3.2,451.6,79.5c101.8,98.6,101.8,209.9,3.2,324.4l-76.3,89l-632.9,9.5c-594.7,9.5-632.9,15.9-702.8,79.5l-76.3,70l368.9,15.9c324.4,12.7,375.3,25.4,435.7,85.9c101.8,98.6,95.4,254.4-15.9,349.8c-82.7,70-101.7,73.1-693.3,73.1h-607.4l-846,852.3c-467.5,467.5-865,871.4-884.1,896.8c-31.8,44.5,174.9,264,1294.3,1383.4L8014.9,2950l159-314.8c89-174.9,184.4-337.1,213.1-362.5c73.2-60.4,232.2-50.9,302.1,19.1c70,73.1,890.5,2226.2,890.5,2340.7c0,98.6-124,216.3-229,216.3c-47.7,0-575.6-184.5-1176.7-413.4c-807.8-305.3-1109.9-435.7-1160.8-496.1c-152.7-168.5-73.2-283,343.4-489.8c171.7-89,314.9-162.2,314.9-168.5c0-3.2-604.2-604.3-1345.2-1332.5L4980.9,628.4L3651.6,1957.7L2322.2,3287.1l318,159c419.8,209.9,499.3,324.4,349.8,492.9c-54.1,60.4-356.2,190.8-1167.2,496.1c-601.1,229-1129,413.4-1176.7,413.4C595.3,4848.6,528.5,4816.8,490.4,4775.5z M1584.4,4002.7c260.8-98.6,502.5-190.8,537.5-203.5c54.1-19.1,22.3-44.5-168.5-139.9C1737,3551.1,1717.9,3532,1622.5,3338c-57.2-114.5-111.3-206.7-124-206.7c-12.7,0-98.6,209.9-197.2,470.7c-95.4,257.6-184.5,492.9-197.2,524.7c-12.7,28.6-15.9,54.1-9.5,54.1C1104.2,4180.8,1323.6,4101.2,1584.4,4002.7z M8895.8,4126.7c-12.7-31.8-101.7-264-197.1-518.4c-95.4-254.4-181.3-473.9-190.8-486.6c-9.6-12.7-63.6,76.3-120.9,197.2c-104.9,216.3-114.5,225.8-340.3,340.3c-127.2,63.6-216.3,124-200.4,130.4c19.1,6.3,254.4,95.4,524.7,197.2c270.3,105,505.7,190.8,521.6,190.8C8905.4,4180.8,8908.6,4155.3,8895.8,4126.7z"/></g></g>
</svg>